# xmcd CD database file
#
# Track frame offsets:
#	150
#	15468
#	31243
#	67116
#	88439
#	105623
#	127959
#	145221
#	165777
#	193613
#	217519
#	235512
#
# Disc length: 3500 seconds
#
# Revision: 1
# Processed by: cddbd v1.5.2PL0 Copyright (c) Steve Scherf et al.
# Submitted via: CDex 1.40Release
#
DISCID=920daa0c
DTITLE=The Dalton Gang - Just for Tonight
DYEAR=2002
DGENRE=Instrumental Jazz-Funk
TTITLE0=Moanin'
TTITLE1=Pressure
TTITLE2=Tensions
TTITLE3=Blackbird
TTITLE4=Easy
TTITLE5=Just for Tonight
TTITLE6=Legwork
TTITLE7=El Boogaloo
TTITLE8=Check it Out
TTITLE9=Please Send Me Someone to Love
TTITLE10=Strollin'
TTITLE11=Well You Needn't
EXTD=YEAR: 2002
EXTT0=
EXTT1=
EXTT2=
EXTT3=
EXTT4=
EXTT5=
EXTT6=
EXTT7=
EXTT8=
EXTT9=
EXTT10=
EXTT11=
PLAYORDER=
